<svg version="1.1" xmlns="http://www.w3.org/2000/svg" xmlns:xlink="http://www.w3.org/1999/xlink" width="479" height="365.91433" viewBox="0,0,479,365.91433"><g transform="translate(2.91433,3.5)"><g data-paper-data="{&quot;isPaintingLayer&quot;:true}" fill-rule="nonzero" stroke-linecap="butt" stroke-linejoin="miter" stroke-miterlimit="10" stroke-dasharray="" stroke-dashoffset="0" style="mix-blend-mode: normal"><path d="M-1.91433,361.41433v-363h477v363z" fill="#000000" stroke="#000000" stroke-width="2"/><path d="M55,89.5v-92h25v92z" fill="#9c6300" stroke="#000000" stroke-width="2"/><path d="M50,292.5v-135h29v135z" fill="#9c6300" stroke="#000000" stroke-width="2"/><path d="M108.48597,132.55762v-30h191v30z" fill="#9c6300" stroke="#000000" stroke-width="2"/><path d="M150.54358,256.41433l-3.25701,-19.48597l180.42836,1.08567l-2.17134,18.4003z" fill="#9c6300" stroke="#000000" stroke-width="2"/><path d="M281.82865,40.38627v-26h158v26z" fill="#9c6300" stroke="#000000" stroke-width="2"/><path d="M375,228.9003v-167h34v167z" fill="#9c6300" stroke="#000000" stroke-width="2"/><path d="M127,328.5v-31h150v31z" fill="#9c6300" stroke="#000000" stroke-width="2"/><path d="M318.74298,358.41433c0,0 8.98393,-4.95676 9.28881,-7.8011c0.95417,-8.90187 -2.77478,-52.97145 -2.77478,-52.97145l12.45792,-15.1994l13.02806,75.97194z" fill="#9c6300" stroke="#000000" stroke-width="2"/><path d="M212.17134,190.21493v-65h23v65z" fill="#9c6300" stroke="#9c6300" stroke-width="2"/><path d="M140.34268,191.78657v-74h23v74z" fill="#9c6300" stroke="#9c6300" stroke-width="2"/><path d="M149.74299,52.98597v-24h102v24z" fill="#9c6300" stroke="#9c6300" stroke-width="2"/><path d="M322.42836,57.18688l-6.51403,-20.54359h16v39z" fill="#9c6300" stroke="#9c6300" stroke-width="2"/><path d="M360.83016,123.84419v-22h82v22z" fill="#9c6300" stroke="#9c6300" stroke-width="2"/><path d="M58.45791,266.58567v-17h57v17z" fill="#9c6300" stroke="#9c6300" stroke-width="2"/><path d="M0,256.5v-22h54v22z" fill="#9c6300" stroke="#9c6300" stroke-width="2"/><path d="M295.17285,194.92836v-46h10v46z" fill="#9c6300" stroke="#9c6300" stroke-width="2"/><path d="M471,324.5c0,17.12083 -13.65531,31 -30.5,31c-16.84469,0 -30.5,-13.87917 -30.5,-31c0,-17.12083 13.65531,-31 30.5,-31c16.84469,0 30.5,13.87917 30.5,31z" data-paper-data="{&quot;origPos&quot;:null}" fill="#f31200" stroke="none" stroke-width="0"/><text transform="translate(420,330.5) scale(0.5,0.5)" font-size="40" xml:space="preserve" data-paper-data="{&quot;origPos&quot;:null}" fill="#f2f2f2" fill-rule="nonzero" stroke="none" stroke-width="1" stroke-linecap="butt" stroke-linejoin="miter" stroke-miterlimit="10" stroke-dasharray="" stroke-dashoffset="0" font-family="Sans Serif" font-weight="normal" text-anchor="start" style="mix-blend-mode: normal"><tspan x="0" dy="0">终点</tspan></text><text transform="translate(449,290.5) scale(0.5,0.5)" font-size="40" xml:space="preserve" fill="#0046f2" fill-rule="nonzero" stroke="none" stroke-width="1" stroke-linecap="butt" stroke-linejoin="miter" stroke-miterlimit="10" stroke-dasharray="" stroke-dashoffset="0" font-family="Sans Serif" font-weight="normal" text-anchor="start" style="mix-blend-mode: normal"><tspan x="0" dy="0"> </tspan></text></g></g></svg>